<svg xmlns="http://www.w3.org/2000/svg" width="755.91" height="464.91" preserveAspectRatio="xMidYMid" viewBox="0 0 755.907 464.907">
    <defs>
        <clipPath id="a">
            <path fill="#fff" d="M236.18 348.44l-37.94-21.906a16.602 16.602 0 0 1-8.28-14.34v-43.81a16.604 16.604 0 0 1 8.28-14.341l37.94-21.905a16.56 16.56 0 0 1 8.28-2.212c2.862 0 5.726.738 8.279 2.212l37.942 21.905a16.607 16.607 0 0 1 8.279 14.341v43.81a16.605 16.605 0 0 1-8.279 14.34l-37.942 21.906c-2.553 1.475-5.416 2.212-8.279 2.212s-5.726-.737-8.28-2.212m15.358-9.045l-3.134 3.823a9.8 9.8 0 0 0 1.026-.511l21.19-12.233-6.283-1.052a22.17 22.17 0 0 1-7.347-2.628 24.996 24.996 0 0 1-5.452 12.601m-28.732-9.09l-3.72.622 18.841 10.878-2.115-2.581a25.008 25.008 0 0 1-5.316-11.747 22.208 22.208 0 0 1-7.69 2.828m18.125 4.723l2.814 3.432 2.674-3.261a18.378 18.378 0 0 0 3.831-15.125l-3.893 4.748a3.307 3.307 0 0 1-5.119 0l-4.12-5.027a18.426 18.426 0 0 0 3.813 15.233m34.3-14.933l.228 7.174c.004.14-.002.281-.015.419l11.927-6.886c.08-.046.154-.097.232-.145l-10.392-2.95a42.36 42.36 0 0 1-2.307-.734c.18 1.028.294 2.072.327 3.122m-63.534-2.388l-10.384 2.948c.079.048.156.1.236.147l10.181 5.878.182-5.703c.037-1.164.177-2.318.394-3.454-.204.06-.405.126-.609.184m8.825-3.648a15.578 15.578 0 0 0-1.994 7.128l-.1 3.139 3.286-.55a15.608 15.608 0 0 0 8.819-4.745 24.99 24.99 0 0 1 .51-2.318l.894-3.239-.183-.222a41.414 41.414 0 0 1-3.398-4.813 41.537 41.537 0 0 1-7.834 5.62m35.074-.506l-.194.236.795 2.71c.161.549.297 1.103.42 1.657a15.606 15.606 0 0 0 8.812 4.738l3.285.55-.099-3.139a15.561 15.561 0 0 0-2.13-7.36 41.586 41.586 0 0 1-6.823-5.342 41.737 41.737 0 0 1-4.066 5.95m-23.922-41.336l-1.473 5.337a35.053 35.053 0 0 0 6.672 31.501l6.925 8.448 6.678-8.147a34.984 34.984 0 0 0 6.519-32.038l-1.668-5.691c-5.073-3.521-8.917-8.362-11.392-14.313-2.615 6.288-6.756 11.343-12.261 14.903m30.938 28.919a34.958 34.958 0 0 0 16.407 10.203l10.508 2.983.832-10.501a34.926 34.926 0 0 0-10.227-27.599c-.17.046-.338.096-.506.139a29.898 29.898 0 0 1 4.22 12.522l1.002 9.987a3.312 3.312 0 0 1-3.617 3.625l-10.256-1.005a29.64 29.64 0 0 1-7.853-1.875c-.161.51-.33 1.017-.51 1.521m-64.063 2.685l.832 10.501 10.508-2.983a34.942 34.942 0 0 0 15.379-9.116 41.25 41.25 0 0 1-.949-2.653 29.607 29.607 0 0 1-7.974 1.92l-10.255 1.005a3.31 3.31 0 0 1-3.617-3.625l1.002-9.987a29.765 29.765 0 0 1 2.8-9.901 34.915 34.915 0 0 0-7.726 24.839m66.06-10.749a23.107 23.107 0 0 0 7.011 1.83l6.237.611-.598-5.97a23.238 23.238 0 0 0-5.071-12.267c-2.941-.036-5.871-.548-8.761-1.531a41.586 41.586 0 0 1 1.182 17.327m-54.548-3.529l-.598 5.97 6.237-.611a23.041 23.041 0 0 0 7.089-1.864 41.576 41.576 0 0 1 .992-17.093c-2.847.893-5.739 1.339-8.638 1.32a23.234 23.234 0 0 0-5.082 12.278m76.652-15.978a41.653 41.653 0 0 1 5.628 8.175v-11.848a38.715 38.715 0 0 1-5.628 3.673m-90.134 8.153a41.552 41.552 0 0 1 5.29-7.785 37.923 37.923 0 0 1-5.29-3.247zm42.911-43.848l-37.941 21.906a9.928 9.928 0 0 0-3.571 3.538c2.094 1.861 5.567 4.475 9.942 6.028 6.408 2.275 12.818 1.604 19.05-1.998 13.025-7.526 13.866-22.981 13.518-29.972a9.977 9.977 0 0 0-.998.498m21.41 29.474c14.039 8.113 25.607-.758 29.664-4.618a9.915 9.915 0 0 0-3.193-2.95L249.43 237.87a9.895 9.895 0 0 0-2.038-.881c-.413 6.781.179 22.655 13.508 30.355"/>
        </clipPath>
        <linearGradient id="b" x2="1" gradientTransform="matrix(109 0 0 -109 216.3 290.29)" gradientUnits="userSpaceOnUse">
            <stop offset="0" stop-color="#fff"/>
            <stop offset="0" stop-color="#fff"/>
            <stop offset="1" stop-color="#fff"/>
        </linearGradient>
        <clipPath id="c">
            <path fill="#fff" d="M0 566.93h566.93V0H0z"/>
        </clipPath>
    </defs>
    <g clip-path="url(#a)" transform="matrix(3.971 0 0 -3.721 -747.701 1314.982)">
        <path fill="url(#b)" d="M236.18 348.44l-37.94-21.906a16.602 16.602 0 0 1-8.28-14.34v-43.81a16.604 16.604 0 0 1 8.28-14.341l37.94-21.905a16.56 16.56 0 0 1 8.28-2.212c2.862 0 5.726.738 8.279 2.212l37.942 21.905a16.607 16.607 0 0 1 8.279 14.341v43.81a16.605 16.605 0 0 1-8.279 14.34l-37.942 21.906c-2.553 1.475-5.416 2.212-8.279 2.212s-5.726-.737-8.28-2.212m15.358-9.045l-3.134 3.823a9.8 9.8 0 0 0 1.026-.511l21.19-12.233-6.283-1.052a22.17 22.17 0 0 1-7.347-2.628 24.996 24.996 0 0 1-5.452 12.601m-28.732-9.09l-3.72.622 18.841 10.878-2.115-2.581a25.008 25.008 0 0 1-5.316-11.747 22.208 22.208 0 0 1-7.69 2.828m18.125 4.723l2.814 3.432 2.674-3.261a18.378 18.378 0 0 0 3.831-15.125l-3.893 4.748a3.307 3.307 0 0 1-5.119 0l-4.12-5.027a18.426 18.426 0 0 0 3.813 15.233m34.3-14.933l.228 7.174c.004.14-.002.281-.015.419l11.927-6.886c.08-.046.154-.097.232-.145l-10.392-2.95a42.36 42.36 0 0 1-2.307-.734c.18 1.028.294 2.072.327 3.122m-63.534-2.388l-10.384 2.948c.079.048.156.1.236.147l10.181 5.878.182-5.703c.037-1.164.177-2.318.394-3.454-.204.06-.405.126-.609.184m8.825-3.648a15.578 15.578 0 0 0-1.994 7.128l-.1 3.139 3.286-.55a15.608 15.608 0 0 0 8.819-4.745 24.99 24.99 0 0 1 .51-2.318l.894-3.239-.183-.222a41.414 41.414 0 0 1-3.398-4.813 41.537 41.537 0 0 1-7.834 5.62m35.074-.506l-.194.236.795 2.71c.161.549.297 1.103.42 1.657a15.606 15.606 0 0 0 8.812 4.738l3.285.55-.099-3.139a15.561 15.561 0 0 0-2.13-7.36 41.586 41.586 0 0 1-6.823-5.342 41.737 41.737 0 0 1-4.066 5.95m-23.922-41.336l-1.473 5.337a35.053 35.053 0 0 0 6.672 31.501l6.925 8.448 6.678-8.147a34.984 34.984 0 0 0 6.519-32.038l-1.668-5.691c-5.073-3.521-8.917-8.362-11.392-14.313-2.615 6.288-6.756 11.343-12.261 14.903m30.938 28.919a34.958 34.958 0 0 0 16.407 10.203l10.508 2.983.832-10.501a34.926 34.926 0 0 0-10.227-27.599c-.17.046-.338.096-.506.139a29.898 29.898 0 0 1 4.22 12.522l1.002 9.987a3.312 3.312 0 0 1-3.617 3.625l-10.256-1.005a29.64 29.64 0 0 1-7.853-1.875c-.161.51-.33 1.017-.51 1.521m-64.063 2.685l.832 10.501 10.508-2.983a34.942 34.942 0 0 0 15.379-9.116 41.25 41.25 0 0 1-.949-2.653 29.607 29.607 0 0 1-7.974 1.92l-10.255 1.005a3.31 3.31 0 0 1-3.617-3.625l1.002-9.987a29.765 29.765 0 0 1 2.8-9.901 34.915 34.915 0 0 0-7.726 24.839m66.06-10.749a23.107 23.107 0 0 0 7.011 1.83l6.237.611-.598-5.97a23.238 23.238 0 0 0-5.071-12.267c-2.941-.036-5.871-.548-8.761-1.531a41.586 41.586 0 0 1 1.182 17.327m-54.548-3.529l-.598 5.97 6.237-.611a23.041 23.041 0 0 0 7.089-1.864 41.576 41.576 0 0 1 .992-17.093c-2.847.893-5.739 1.339-8.638 1.32a23.234 23.234 0 0 0-5.082 12.278m76.652-15.978a41.653 41.653 0 0 1 5.628 8.175v-11.848a38.715 38.715 0 0 1-5.628 3.673m-90.134 8.153a41.552 41.552 0 0 1 5.29-7.785 37.923 37.923 0 0 1-5.29-3.247zm42.911-43.848l-37.941 21.906a9.928 9.928 0 0 0-3.571 3.538c2.094 1.861 5.567 4.475 9.942 6.028 6.408 2.275 12.818 1.604 19.05-1.998 13.025-7.526 13.866-22.981 13.518-29.972a9.977 9.977 0 0 0-.998.498m21.41 29.474c14.039 8.113 25.607-.758 29.664-4.618a9.915 9.915 0 0 0-3.193-2.95L249.43 237.87a9.895 9.895 0 0 0-2.038-.881c-.413 6.781.179 22.655 13.508 30.355"/>
    </g>
    <g fill="#fff" clip-path="url(#c)" transform="matrix(3.971 0 0 -3.721 -747.701 1314.982)">
        <path d="M314.18 310.14h-3.644v-4.054h3.69c1.571 0 2.528.456 2.528 2.005 0 1.594-.934 2.049-2.574 2.049m-.137 5.944h-3.507v-3.325h3.553c1.253 0 2.278.387 2.278 1.685 0 1.299-.888 1.64-2.324 1.64m.41-12.798h-7.037v13.823c0 .888.706 1.662 1.595 1.662h5.693c2.915 0 4.851-1.161 4.851-3.917 0-1.639-.661-2.619-1.867-3.211 1.525-.592 2.414-1.594 2.414-3.644 0-3.211-2.301-4.713-5.649-4.713m8.557 15.484h1.572v-12.639h7.561v-2.847h-10.727v13.824c0 .888.706 1.662 1.594 1.662m15.54-9.7h4.259l-2.141 6.582zm3.963 9.702l5.557-15.486h-3.348l-1.026 3.165h-5.989l-1.024-3.165h-3.394l5.17 14.461c.228.683.729 1.025 1.503 1.025zM355.1 303.06c-4.76 0-7.128 3.143-7.128 7.971 0 4.987 2.505 7.993 7.401 7.993 1.89 0 3.416-.455 4.578-1.412 1.092-.979 1.708-2.323 1.867-4.008h-1.913c-.683 0-1.184.319-1.48.934-.524 1.116-1.549 1.685-3.052 1.685-2.938 0-4.236-2.073-4.236-5.192 0-3.03 1.253-5.17 4.145-5.17 1.981 0 3.12 1.093 3.462 2.801h3.074c-.296-3.576-2.801-5.602-6.718-5.602m9.7 15.71h1.571v-6.376l6.035 6.376h4.009l-6.172-6.285 6.718-9.201h-3.871l-3.917 5.465c-.684.912-1.321 1.276-1.913 1.071-.593-.205-.889-.592-.889-1.116v-5.42h-3.165v13.824c0 .888.706 1.662 1.594 1.662m-49.74-17.33c1.928 0 3.611-.488 5.002-1.464 1.269-1.024 1.976-2.464 2.099-4.343h-2.099c-.61 0-1.099.293-1.488.854-.66 1.342-1.806 2.001-3.416 2.001-2.855 0-4.319-1.806-4.344-5.441-.024-3.635 1.465-5.587 4.515-5.807 2.293 0 3.634 1.537 4.001 3.538h-2.001c-.952 0-1.708.756-1.708 1.708v1.049h6.758v-8.955h-.853c-.806 0-1.586.537-1.659 1.294l-.147.805c-1.171-1.513-2.367-2.343-4.758-2.343-4.757 0-7.636 3.685-7.636 8.54-.074 4.904 2.83 8.759 7.734 8.564m16.37-3.15h-4.197v-4.367h4.002c1.61 0 2.512.585 2.512 2.196 0 1.512-.804 2.171-2.317 2.171m3.27-5.758c.707-.244 1.244-.635 1.585-1.147.293-.561.439-1.391.513-2.464l.146-3.245c.025-.513.219-.879.537-1.098h-3.734c-.17.317-.243.659-.267 1-.073.244-.122 1.195-.148 2.806-.121 2.001-.487 2.635-2.488 2.635h-3.611v-6.441h-3.392v14.81c0 .952.757 1.781 1.709 1.781h6.295c3.44 0 5.343-1.317 5.343-4.733 0-2.099-.903-3.465-2.488-3.904m7.49.338c0-3.245 1.439-5.685 4.538-5.685s4.563 2.342 4.563 5.685c0 3.27-1.464 5.612-4.563 5.612s-4.538-2.391-4.538-5.612m-3.392 0c0 5.075 3.001 8.564 7.93 8.564 4.953 0 7.954-3.538 7.954-8.564 0-5.1-2.903-8.54-7.954-8.54s-7.93 3.465-7.93 8.54m37.282 8.3l-4.709-16.592h-3.245l-2.562 12.713-2.586-12.713h-3.269l-4.733 16.592h3.538l2.805-11.688 2.44 11.688h3.611l2.391-11.688 2.513 10.395c.293.854.854 1.293 1.708 1.293zM319.04 269h-5.986v-6.66h6.061c2.581 0 4.154.748 4.154 3.292 0 2.619-1.535 3.368-4.229 3.368m-.225 9.766h-5.761v-5.463h5.837c2.057 0 3.742.636 3.742 2.769s-1.46 2.694-3.818 2.694m.674-21.029h-11.562v22.713c0 1.459 1.16 2.731 2.619 2.731h9.354c4.79 0 7.97-1.908 7.97-6.436 0-2.694-1.085-4.303-3.067-5.275 2.507-.973 3.966-2.619 3.966-5.988 0-5.276-3.78-7.745-9.28-7.745m16.421 12.723c0-4.977 2.207-8.719 6.959-8.719s6.997 3.593 6.997 8.719c0 5.015-2.245 8.606-6.997 8.606s-6.959-3.667-6.959-8.606m-5.202 0c0 7.783 4.602 13.134 12.161 13.134 7.596 0 12.198-5.426 12.198-13.134 0-7.82-4.452-13.096-12.198-13.096-7.745 0-12.161 5.314-12.161 13.096"/>
        <path d="M376.51 283.18l-7.97-12.422 7.97-13.022h-6.062l-5.2 8.831-5.164-8.831h-6.024l7.97 13.022-7.97 12.422h6.024l5.164-8.943 4.452 7.634c.45.86 1.198 1.309 2.283 1.309z"/>
    </g>
</svg>
